<svg id="Layer_1" data-name="Layer 1" xmlns="http://www.w3.org/2000/svg" viewBox="0 0 579.32 171.5"><defs><style>.cls-1{fill:#fbb03b;}.cls-2{fill:#f7674b;}</style></defs><title>boxmag-logo-trimmed</title><path d="M238,125.45q-5.34,0-10.62-.32a77,77,0,0,1-11-1.55V60.67a90.78,90.78,0,0,1,9.83-1.26q5.33-.42,9.92-.42a65.55,65.55,0,0,1,11.37.89,26.39,26.39,0,0,1,8.94,3,15.73,15.73,0,0,1,5.85,5.66,16.37,16.37,0,0,1,2.11,8.66q0,7.77-7.49,12.27,6.18,2.34,8.43,6.36a18.33,18.33,0,0,1,2.24,9.08q0,10.22-7.44,15.36T238,125.45ZM230.62,85.2h7.11c4.49,0,7.71-.58,9.64-1.73a6,6,0,0,0,2.9-5.57q0-3.93-3-5.53c-2-1.07-4.93-1.59-8.8-1.59-1.25,0-2.59,0-4,0s-2.71.11-3.83.23Zm0,11.14v16.74c1.06.12,2.21.22,3.46.28s2.62.09,4.12.09a25.37,25.37,0,0,0,10.58-1.87q4-1.87,4-6.93,0-4.49-3.37-6.41c-2.24-1.29-5.46-1.93-9.64-1.92Z" transform="translate(-30.85 -6.33)"/><path d="M339.33,92.13a39.82,39.82,0,0,1-2.48,14.65,30,30,0,0,1-6.79,10.58,28,28,0,0,1-10.25,6.41A37.54,37.54,0,0,1,307,125.92a36.63,36.63,0,0,1-12.52-2.15,29.07,29.07,0,0,1-10.3-6.41,30.32,30.32,0,0,1-6.93-10.58,39.62,39.62,0,0,1-2.52-14.65,38,38,0,0,1,2.62-14.65,31.1,31.1,0,0,1,7.06-10.63,29.14,29.14,0,0,1,10.3-6.46,35.46,35.46,0,0,1,12.31-2.15,36.25,36.25,0,0,1,12.55,2.15,28.52,28.52,0,0,1,10.3,6.46,30.18,30.18,0,0,1,6.92,10.63A38.94,38.94,0,0,1,339.33,92.13Zm-49.52,0a29.87,29.87,0,0,0,1.17,8.61,19.85,19.85,0,0,0,3.37,6.6,15.11,15.11,0,0,0,5.38,4.26,18.5,18.5,0,0,0,14.56,0,15,15,0,0,0,5.43-4.26,19.67,19.67,0,0,0,3.37-6.6,32.45,32.45,0,0,0,0-17.27,19.54,19.54,0,0,0-3.37-6.65,14.77,14.77,0,0,0-5.43-4.26,16.83,16.83,0,0,0-7.26-1.5,16.45,16.45,0,0,0-7.3,1.55,15.28,15.28,0,0,0-5.38,4.3A19.72,19.72,0,0,0,291,83.56a29.89,29.89,0,0,0-1.17,8.57Z" transform="translate(-30.85 -6.33)"/><path d="M384.51,124.61q-2.75-5.42-6-11a39.32,39.32,0,0,0-7.48-9.4c-.88,1-2,2.31-3.32,4s-2.68,3.55-4,5.48-2.6,3.93-3.76,6-2,3.7-2.61,4.88H340.69a170.24,170.24,0,0,1,9.67-15.69q5.56-8.09,12.43-17.18l-21.17-32h17.7l12.36,18.78L384.31,59.7H401L379.92,91.08a197.48,197.48,0,0,1,13.64,19q5.35,8.64,8.44,14.54Z" transform="translate(-30.85 -6.33)"/><path class="cls-1" d="M427.58,59.74c1.13,2.06,2.42,4.6,3.89,7.63s3,6.3,4.6,9.83,3.18,7.13,4.74,10.81,3,7.14,4.42,10.39L449.64,88q2.36-5.52,4.74-10.81t4.6-9.83c1.48-3,2.77-5.57,3.89-7.63h13.3q.93,6.45,1.73,14.46t1.4,16.66q.63,8.67,1.13,17.37t.88,16.38H467.09q-.29-9.45-.75-20.59t-1.41-22.47l-3.75,8.7q-2.07,4.78-4.09,9.55c-1.35,3.19-2.64,6.23-3.9,9.13s-2.31,5.38-3.19,7.44H439.8c-.88-2.06-1.94-4.54-3.2-7.44s-2.55-6-3.9-9.13-2.69-6.37-4.08-9.55-2.63-6.09-3.75-8.7q-.93,11.31-1.41,22.47t-.75,20.59h-14.2q.39-7.68.89-16.38t1.11-17.37q.6-8.65,1.4-16.66t1.73-14.46Z" transform="translate(-30.85 -6.33)"/><path class="cls-1" d="M537.88,124.61c-.72-2.25-1.5-4.57-2.33-6.94l-2.48-7.1H507.73l-2.46,7.11c-.83,2.38-1.59,4.69-2.3,6.93H487.8q3.66-10.48,7-19.38t6.43-16.75q3.15-7.87,6.2-14.94t6.34-13.8h13.84q3.2,6.72,6.3,13.8t6.26,14.94q3.15,7.86,6.44,16.75t7,19.38ZM520.33,74.43c-.32.95-.8,2.23-1.43,3.85s-1.34,3.49-2.14,5.62-1.7,4.47-2.69,7-2,5.24-3,8h18.55c-1-2.82-2-5.5-2.88-8.06s-1.82-4.91-2.65-7-1.57-4-2.21-5.62S520.72,75.35,520.33,74.43Z" transform="translate(-30.85 -6.33)"/><path class="cls-1" d="M610.17,87.46v35a56.45,56.45,0,0,1-8.43,2.2,74.72,74.72,0,0,1-14.33,1.17,37.36,37.36,0,0,1-13.24-2.25A27.59,27.59,0,0,1,564,117a29.38,29.38,0,0,1-6.51-10.57,42,42,0,0,1-2.29-14.32,38.34,38.34,0,0,1,2.53-14.42,30.92,30.92,0,0,1,6.92-10.63A29.22,29.22,0,0,1,575,60.49a35.49,35.49,0,0,1,12.69-2.25,51,51,0,0,1,14.65,2,28.72,28.72,0,0,1,4.4,1.64,27.53,27.53,0,0,1,2.48,1.31L605,74.9a36.9,36.9,0,0,0-6.88-2.76A28.88,28.88,0,0,0,589.67,71q-10.2,0-14.75,5.67t-4.54,15.49a31.23,31.23,0,0,0,1.13,8.65,19.24,19.24,0,0,0,3.37,6.7,15.35,15.35,0,0,0,5.62,4.35,19,19,0,0,0,7.86,1.55c1.62,0,3,0,4.17-.1a18.78,18.78,0,0,0,3-.37V102.08H584.79V87.48Z" transform="translate(-30.85 -6.33)"/><polygon class="cls-1" points="0 42.93 74.22 85.78 148.46 42.93 148.46 42.86 74.22 0 0 42.93"/><polygon class="cls-2" points="148.45 42.86 148.45 128.64 74.22 171.5 74.22 85.72 148.45 42.86"/><path class="cls-1" d="M70.27,122.42,46.45,108.76V75.26L70.27,88.93C79.52,94.24,87,106,87,115.28h0C87,124.53,79.51,127.73,70.27,122.42Z" transform="translate(-30.85 -6.33)"/><path class="cls-2" d="M70.27,155.92,46.45,142.25V108.76l23.82,13.66C79.52,127.73,87,139.53,87,148.78h0C87,158.08,79.51,161.23,70.27,155.92Z" transform="translate(-30.85 -6.33)"/></svg>