<svg id="Layer_1" data-name="Layer 1" xmlns="http://www.w3.org/2000/svg" viewBox="0 0 533.93 189.8"><defs><style>.cls-1{fill:#1cbaed;}.cls-2{fill:#41e0a3;}.cls-3{fill:#3c20b2;}.cls-4{fill:#5823db;}.cls-5{fill:#0c9ad8;}.cls-6{fill:#fff;}.cls-7{fill:#666;}</style></defs><title>logo_with_registered_mark_white</title><polygon class="cls-1" points="111.86 31.89 56.71 63.74 1.55 31.89 1.55 31.84 56.71 0 111.86 31.89"/><polygon class="cls-2" points="151.28 152.62 96.14 184.46 64.26 136.26 119.41 104.41 151.28 152.62"/><polygon class="cls-3" points="55.16 138.26 55.16 158.42 0 189.8 0 106.42 55.16 138.26"/><polygon class="cls-4" points="55.16 67.92 55.16 131.6 0 99.76 55.16 67.92"/><polygon class="cls-5" points="116.04 36.07 116.04 99.76 60.89 131.6 60.89 67.92 116.04 36.07"/><path class="cls-6" d="M228.52,113.76l-10.06-22.9a10.82,10.82,0,0,0-3-4.19c-1.09-.82-2.91-1.24-5.42-1.24H195.79v28.33H178.18V28.46H219.1c9.74,0,17,2.6,21.55,7.72s6.87,12.15,6.87,20.84a23.89,23.89,0,0,1-16.86,23.77l-.3.1.24.2A15.48,15.48,0,0,1,234,84.77a35,35,0,0,1,2.58,5.29l10.27,23.7ZM195.79,70.89h18.66c4.72,0,8.46-1.07,11.14-3.17S229.66,62,229.66,57c0-4.82-1.18-8.39-3.51-10.64S220.24,43,215.52,43H195.79Z"/><polygon class="cls-6" points="258.38 113.76 258.38 28.46 319.48 28.46 319.48 42.08 275.99 42.08 275.99 64.37 314.56 64.37 314.56 77.85 275.99 77.85 275.99 100.28 319.48 100.28 319.48 113.76 258.38 113.76"/><polygon class="cls-6" points="385.22 113.76 360.55 74.15 348.91 86.74 348.91 113.76 331.3 113.76 331.3 28.46 348.91 28.46 348.91 65.04 382.14 28.46 402.29 28.46 371.47 62.98 403.96 113.76 385.22 113.76"/><path class="cls-6" d="M446.28,115.09c-27.5,0-41.45-14.66-41.45-43.58,0-15.57,3.52-27,10.46-33.92s17.36-10.46,31-10.46,24.06,3.52,31,10.46,10.46,18.35,10.46,33.92C487.74,100.43,473.79,115.09,446.28,115.09Zm0-73c-8.08,0-14.1,2.24-17.88,6.64s-5.74,12.06-5.74,22.78c0,9.66,1.92,16.93,5.7,21.59s9.8,7,17.88,7,14.11-2.37,17.89-7,5.69-11.93,5.69-21.59c0-10.72-1.91-18.39-5.69-22.79s-9.76-6.64-17.85-6.64Z"/><path class="cls-7" d="M178.18,162.08v-38H195.1a14.07,14.07,0,0,1,7.19,1.65,10.24,10.24,0,0,1,4.18,4.51,15.07,15.07,0,0,1,1.36,6.51,12.11,12.11,0,0,1-3.51,9.08q-3.51,3.42-9.46,3.42h-10.2V162Zm6.48-17.86h9a7.73,7.73,0,0,0,5.78-2,7.48,7.48,0,0,0,1.94-5.43,8,8,0,0,0-1.85-5.65,7.23,7.23,0,0,0-5.57-2h-9.3Z"/><path class="cls-7" d="M208.82,162.08l14.5-38h7.19l14.38,38h-6.6l-3.77-9.78H219.25l-3.77,9.78Zm11.44-14.73h13.2L226.86,130Z"/><path class="cls-7" d="M267.17,162.67q-9.36,0-14.17-5.13t-4.8-13.87a25.91,25.91,0,0,1,2-10.75,15,15,0,0,1,6.22-7,20.91,20.91,0,0,1,10.66-2.45,33.24,33.24,0,0,1,11.14,1.83v5.6a26.24,26.24,0,0,0-5-1.44,30.27,30.27,0,0,0-5.62-.5q-7.08,0-10,3.77t-2.94,10.94q0,6.66,3.18,10.11t9.84,3.45a33.25,33.25,0,0,0,5.46-.45,24.79,24.79,0,0,0,5.15-1.38v5.66a32,32,0,0,1-5.1,1.18A41.82,41.82,0,0,1,267.17,162.67Z"/><path class="cls-7" d="M285.2,162.08v-38h6.46v17.49l16.15-17.45h7.42l-14,15.33,14.55,22.63H309l-11.73-18.57-5.6,6v12.55Z"/><path class="cls-7" d="M321.51,162.08l14.5-38h7.19l14.38,38H351l-3.77-9.78H332l-3.77,9.78ZM333,147.35h13.2L339.55,130Z"/><path class="cls-7" d="M379.78,162.67q-9.36,0-14.11-5.07t-4.75-13.73A26.11,26.11,0,0,1,363,133.05a15.17,15.17,0,0,1,6.27-7,20.88,20.88,0,0,1,10.7-2.48,39,39,0,0,1,6.1.45,30.59,30.59,0,0,1,5.16,1.26v5.54a31.13,31.13,0,0,0-10.73-1.76q-7.25,0-10.17,3.83t-2.91,11q0,6.54,3.06,10t9.49,3.42a23.71,23.71,0,0,0,8.19-1.18V145.46h-9.49v-4.18h15v18.26a20.13,20.13,0,0,1-5.21,2.16A32.46,32.46,0,0,1,379.78,162.67Z"/><path class="cls-7" d="M401.27,162.08v-38h6.39v38Z"/><path class="cls-7" d="M416.14,162.08v-38h5.66L441.6,152v-27.9H448v38h-5.66l-19.74-27.88v27.88Z"/><path class="cls-7" d="M473.89,162.67q-9.37,0-14.12-5.07T455,143.87a26.1,26.1,0,0,1,2.06-10.82,15.19,15.19,0,0,1,6.28-7,20.85,20.85,0,0,1,10.69-2.48,37.79,37.79,0,0,1,6.1.45,30.59,30.59,0,0,1,5.16,1.26v5.54a31.13,31.13,0,0,0-10.73-1.76q-7.24,0-10.16,3.83t-2.92,11q0,6.54,3.06,10t9.49,3.42a23.76,23.76,0,0,0,8.2-1.18V145.46h-9.49v-4.18h15v18.26a20.2,20.2,0,0,1-5.22,2.16A32.39,32.39,0,0,1,473.89,162.67Z"/><path class="cls-6" d="M517.79,59.77a15.82,15.82,0,0,1-6.29-1.27,16.54,16.54,0,0,1-8.63-8.63,16.19,16.19,0,0,1,21.21-21.2,16.68,16.68,0,0,1,5.14,3.48,16.44,16.44,0,0,1,3.44,5.15A16.1,16.1,0,0,1,529.18,55,16.54,16.54,0,0,1,524,58.5,15.6,15.6,0,0,1,517.79,59.77Zm0-4.15a11.69,11.69,0,0,0,6-1.56A11.55,11.55,0,0,0,528,49.8a13.16,13.16,0,0,0,0-12.43,11.35,11.35,0,0,0-4.21-4.24,12.48,12.48,0,0,0-12,0,11.35,11.35,0,0,0-4.24,4.24,13.16,13.16,0,0,0,0,12.43,11.55,11.55,0,0,0,4.24,4.26,11.71,11.71,0,0,0,6,1.61Zm-7-3.07v-18h9.11a5.93,5.93,0,0,1,4.63,1.66,6.13,6.13,0,0,1,1.52,4.33q0,4.2-3.71,5.41a3,3,0,0,1,.63.74,5.45,5.45,0,0,1,.49,1l1.9,4.87h-4.19l-1.8-5a1.23,1.23,0,0,0-.64-.83,3.73,3.73,0,0,0-1.41-.19h-2.24v6Zm4.29-9.26h2.68a7.54,7.54,0,0,0,2.9-.46c.73-.31,1.1-1.08,1.1-2.32a2.49,2.49,0,0,0-.78-2.14,3.87,3.87,0,0,0-2.34-.59h-3.56Z"/></svg>