<?xml version="1.0" encoding="UTF-8"?>
<svg id="Layer_2" data-name="Layer 2" xmlns="http://www.w3.org/2000/svg" viewBox="0 0 324.19 283.92">
  <defs>
    <style>
      .cls-1 {
        fill: #fbb03b;
      }

      .cls-1, .cls-2, .cls-3, .cls-4 {
        stroke-width: 0px;
      }

      .cls-2 {
        fill: #e5e5e5;
      }

      .cls-3 {
        fill: #e6e6e6;
      }

      .cls-4 {
        fill: #fff;
      }
    </style>
  </defs>
  <g id="Layer_1-2" data-name="Layer 1">
    <g>
      <path class="cls-2" d="M324.19,283.92H0V82.08h324.19v201.83ZM7.54,276.37h309.11V89.63H7.54v186.75Z"/>
      <rect class="cls-4" x="3.77" y="85.86" width="316.65" height="194.29"/>
      <path class="cls-3" d="M320.42,135.1v-11.93h-43.93v-37.31h-11.93v37.31h-78.2v-37.31h-11.93v37.31H53.82v-37.31h-11.93v37.31H3.77v11.93h38.11v46.39H3.77v11.93h38.11v49.71H3.77v11.93h102.4v25.09h11.93v-25.09h56.33v25.09h11.93v-25.09h134.06v-11.93h-134.06v-49.71h134.06v-11.93h-43.93v-46.39h43.93ZM174.43,135.1v14.58H53.82v-14.58h120.62ZM53.82,161.61h120.62v19.88H53.82v-19.88ZM53.82,243.12v-49.71h52.36v49.71h-52.36ZM174.43,243.12h-56.33v-49.71h56.33v49.71ZM264.57,181.49h-78.2v-46.39h78.2v46.39Z"/>
      <path class="cls-1" d="M237.95,57.17c0,31.59-57.2,101.97-57.2,101.97,0,0-57.2-70.38-57.2-101.97C123.56,25.58,149.19-.02,180.78,0c31.57.02,57.16,25.6,57.17,57.17Z"/>
      <path class="cls-4" d="M206.9,54.68c0,14.44-11.71,26.15-26.15,26.15s-26.15-11.71-26.15-26.15,11.71-26.15,26.15-26.15c14.44,0,26.14,11.69,26.15,26.13v.02Z"/>
      <circle class="cls-1" cx="180.75" cy="185.01" r="15.42"/>
    </g>
  </g>
</svg>