<?xml version="1.0" encoding="UTF-8"?>
<svg id="Layer_2" data-name="Layer 2" xmlns="http://www.w3.org/2000/svg" viewBox="0 0 55.18 31.98">
  <defs>
    <style>
      .cls-1 {
        fill: #000;
        stroke-width: 0px;
      }
    </style>
  </defs>
  <g id="Layer_1-2" data-name="Layer 1">
    <path class="cls-1" d="M22.77,31.97c-1.37-.04-2.42-.42-3.29-1.21-.76-.68-1.26-1.54-1.78-2.45l-2.88-5.02h-1.71c-.16.6-.4,1.11-.72,1.53-.68.88-1.67,1.33-2.93,1.33h-4.15c-.15.03-.36.05-.57.05-.93,0-1.71-.36-2.32-1.07-.69-.79-1.11-2.01-1.29-3.72L.08,8.31c-.21-1.44.02-2.59.69-3.41.62-.74,1.57-1.15,2.81-1.21,0,0,.06,0,.11,0h5.84c.95.05,1.74.27,2.34.66.55.35.95.83,1.19,1.42h3.92c1.26-.84,2.25-1.34,3.27-1.66.86-.27,1.73-.4,2.65-.4.34,0,.69.02,1.05.05l1.32-1.56s.08-.09.13-.14c.42-.4.93-.76,1.48-1.05.54-.29,1.14-.52,1.78-.68.86-.22,1.79-.33,2.77-.33h.24c1.07.02,2.16.17,3.17.44,1.84.49,3.38,1.57,4.87,2.62.32.23.65.45,1.03.71l1.83,1.22c.05-.05.1-.1.16-.15.6-.54,1.42-.85,2.45-.92h0s.46-.02.46-.02h5.04c1.46,0,2.51.29,3.27.88.96.74,1.36,1.85,1.19,3.3l-1.34,13.85c-.1,1.34-.48,2.39-1.12,3.13-.68.78-1.61,1.18-2.76,1.18-.07,0-.15,0-.22,0h-4.38s-.12,0-.19,0c-.78,0-1.47-.24-2.05-.7-.39-.32-.72-.72-.98-1.2h-1.02c.11.6.07,1.2-.11,1.76-.23.7-.67,1.33-1.28,1.82-.58.46-1.26.76-1.99.88-.22.04-.45.06-.67.06-.41,0-.81-.06-1.19-.19-.7.68-1.46,1.13-2.25,1.35-.37.1-.75.15-1.13.15-.41,0-.83-.06-1.25-.18-.79.8-1.66,1.31-2.59,1.51-.31.07-.63.1-.95.1-.68,0-1.4-.16-2.13-.46-.3.21-.62.39-.93.52-.52.22-1.09.33-1.67.33h-.15ZM15.5,20.97c.42,0,.81.23,1.01.59l3.21,5.6c.48.84.86,1.47,1.31,1.87.45.4,1.01.6,1.81.62h0c.34,0,.61-.05.86-.16.06-.02.12-.05.18-.08l-1.88-3.52c-.15-.27-.18-.59-.09-.89s.29-.54.57-.69c.16-.09.35-.14.54-.14.43,0,.82.24,1.02.62l2.19,4.1c.5.24.98.36,1.41.36.16,0,.31-.02.45-.05.44-.1.87-.34,1.29-.74l-3.07-4.82c-.34-.54-.18-1.26.35-1.6.19-.12.4-.18.62-.18.4,0,.77.2.98.54l3.36,5.27c.28.1.55.15.8.15.17,0,.34-.02.51-.07.38-.1.76-.33,1.14-.68l-2.95-5.56c-.15-.27-.18-.59-.09-.89s.3-.54.57-.69c.16-.09.35-.13.54-.13.44,0,.83.24,1.03.63l3.16,5.94c.2.09.42.14.66.14h0c.1,0,.2,0,.3-.02.32-.05.65-.2.91-.4.25-.2.43-.45.51-.71.1-.32.08-.67-.08-1.04l-.22-.4c-.13-.14-.22-.3-.27-.48l-7.04-12.66c-.37-.61-.73-.93-1.05-.93-.14,0-.3.05-.49.17-.45.26-.95.72-1.44,1.17-.31.29-.63.58-.9.8l-1.26,1.04h-.01c-.92.73-1.96,1.16-3.04,1.24-.14.01-.27.02-.41.02-.55,0-1.07-.09-1.56-.28-.65-.25-1.21-.65-1.62-1.16-.47-.59-.76-1.33-.83-2.13l-.04-.49h.11c.05-.12.11-.24.2-.35l3.19-3.79c-.36.05-.7.12-1.05.23-.87.27-1.74.73-2.92,1.54-.18.14-.44.23-.69.23h-3.99v7.95l.02,4.92h2.13ZM43.98,22.9c.16.37.34.64.55.8.17.14.37.2.62.2.06,0,.12,0,.17,0h4.59c.46,0,.78-.12,1.01-.37.3-.35.49-.95.56-1.8l1.35-13.97c.1-.84-.2-1.07-.3-1.15-.34-.26-.96-.39-1.86-.39h-5.22c-.53.03-.93.14-1.15.34-.08.07-.14.16-.19.28-.02.09-.04.18-.08.27-.03.14-.04.3-.04.48v15.31ZM3.69,6.02c-.57.03-.95.15-1.13.37-.23.27-.29.83-.17,1.63v.03s0,.1,0,.1l1.05,13c.12,1.21.37,2.03.73,2.46.15.18.35.26.61.26,0,0,.02,0,.02,0v-.05h.46s4.09,0,4.09,0h.04c.57,0,.93-.13,1.15-.42.28-.36.43-.95.47-1.78v-7.67s.01,0,.01,0l-.03-7.02c-.06-.4-.24-.56-.37-.64-.27-.17-.69-.27-1.27-.28h-.27s-5.39,0-5.39,0l-.03-.46.02.45ZM41.66,22V7.57c0-.14.01-.28.02-.41l-2.17-1.44c-.36-.24-.74-.5-1.12-.77-1.35-.94-2.71-1.89-4.13-2.27-.83-.22-1.73-.34-2.62-.36h-.22c-.78,0-1.5.09-2.17.26-.47.12-.9.28-1.28.49-.36.19-.69.42-.96.68l-1.54,1.84c-.07.11-.15.22-.26.31l-4.26,5.07c.06.17.13.32.24.45.15.19.37.34.62.43.22.08.47.12.73.12.07,0,.15,0,.22,0,.62-.05,1.26-.32,1.8-.76l1.21-1c.26-.22.49-.42.71-.62l.11-.1c.57-.52,1.17-1.07,1.81-1.45.65-.39,1.24-.58,1.81-.58,1.11,0,2.07.71,2.94,2.17l6.87,12.36h1.64ZM48.35,20.87c-.78,0-1.41-.63-1.41-1.41s.63-1.41,1.41-1.41,1.41.63,1.41,1.41-.63,1.41-1.41,1.41ZM6.64,20.87c-.78,0-1.41-.63-1.41-1.41s.63-1.41,1.41-1.41,1.41.63,1.41,1.41-.63,1.41-1.41,1.41Z"/>
  </g>
</svg>