<?xml version="1.0" encoding="UTF-8"?>
<svg id="Layer_2" data-name="Layer 2" xmlns="http://www.w3.org/2000/svg" viewBox="0 0 327.74 250.25">
  <defs>
    <style>
      .cls-1 {
        fill: #ccc;
      }

      .cls-1, .cls-2, .cls-3, .cls-4, .cls-5, .cls-6, .cls-7 {
        stroke-width: 0px;
      }

      .cls-2 {
        fill: #3f3d56;
      }

      .cls-3 {
        fill: #e5e5e5;
      }

      .cls-4 {
        fill: #e6e6e6;
      }

      .cls-5 {
        fill: #f1f1f1;
      }

      .cls-6 {
        fill: #fff;
      }

      .cls-7 {
        fill: #f7674b;
      }
    </style>
  </defs>
  <g id="Layer_1-2" data-name="Layer 1">
    <g>
      <path class="cls-6" d="M61.95,76.75v109.72c0,1.39,1.13,2.52,2.53,2.53h200.67c1.39,0,2.52-1.13,2.53-2.53v-109.72c0-1.39-1.13-2.52-2.53-2.53h-.07l-.06.03-42.45,17.61-58.49,24.26c-.45.18-.95.18-1.4,0l-56.69-24.21-41.43-17.69h-.07c-1.39,0-2.52,1.13-2.53,2.53Z"/>
      <path class="cls-2" d="M64,74.79c-.11-.16-.07-.39.09-.5L163.91,4.78c.87-.6,2.03-.6,2.89,0l99.1,69.51c.16.11.2.34.09.5-.11.16-.34.2-.5.09L166.39,5.37c-.62-.43-1.45-.43-2.07,0l-99.82,69.51c-.06.04-.13.06-.21.06-.12,0-.23-.06-.3-.15Z"/>
      <polygon class="cls-4" points="209.47 124.81 160.38 136 69.97 82.4 165.26 7.33 259.82 77.41 209.47 124.81"/>
      <path class="cls-7" d="M89.44,169.1c-1.21,0-2.18-.98-2.18-2.19,0-1.21.98-2.18,2.19-2.18h46.72c1.21,0,2.18.98,2.18,2.19,0,1.21-.98,2.18-2.19,2.18h-46.72s0,0,0,0Z"/>
      <path class="cls-7" d="M89.44,159.72h0c-1.21,0-2.18-.98-2.18-2.19,0-1.21.98-2.18,2.19-2.18h16.77c1.21,0,2.18.98,2.18,2.19,0,1.21-.98,2.18-2.19,2.18h-16.76s0,0,0,0Z"/>
      <path class="cls-6" d="M162.86,116.24l-56.41-24.09-.11-.05V16.3c0-1.39,1.13-2.52,2.53-2.53h111.89c1.39,0,2.52,1.13,2.53,2.53v75.75s-58.32,24.2-58.32,24.2c-.33.13-.68.2-1.04.2-.37,0-.73-.07-1.07-.21Z"/>
      <path class="cls-2" d="M162.79,116.4l-56.62-24.18V16.3c0-1.49,1.21-2.71,2.71-2.71h111.89c1.49,0,2.71,1.21,2.71,2.71v75.87s-58.43,24.25-58.43,24.25c-.35.14-.73.22-1.1.22-.39,0-.78-.08-1.14-.23ZM222.74,16.3c0-1.1-.89-1.98-1.99-1.99h-111.89c-1.1,0-1.98.89-1.99,1.99v75.44s56.18,23.99,56.18,23.99c.54.23,1.14.23,1.68.01l57.99-24.06V16.3Z"/>
      <path class="cls-2" d="M62.49,76.75v109.72c0,1.39,1.13,2.52,2.53,2.53h200.67c1.39,0,2.52-1.13,2.53-2.53v-109.72c0-1.39-1.13-2.52-2.53-2.53h-.07l-.06.03-42.45,17.61-58.49,24.26c-.45.18-.95.18-1.4,0l-56.69-24.21-41.43-17.69h-.07c-1.39,0-2.52,1.13-2.53,2.53ZM63.21,76.75c0-.97.77-1.76,1.73-1.8l41.58,17.75,56.4,24.09c.63.26,1.33.27,1.96.01l58.21-24.15,42.66-17.7c.97.04,1.73.83,1.74,1.8v109.72c0,1-.81,1.8-1.8,1.8H65.02c-1,0-1.8-.81-1.8-1.8v-109.72Z"/>
      <path class="cls-7" d="M132.24,39.2c0-1.59,1.29-2.89,2.88-2.89h39.7c1.59,0,2.88,1.29,2.88,2.88,0,1.59-1.29,2.89-2.88,2.89h-39.7c-1.59,0-2.88-1.29-2.88-2.88Z"/>
      <path class="cls-7" d="M132.23,26.93c0-1.59,1.29-2.89,2.89-2.89h19.13c1.59,0,2.89,1.29,2.89,2.89s-1.29,2.89-2.89,2.89h-19.13c-1.59,0-2.89-1.29-2.89-2.89Z"/>
      <path class="cls-1" d="M132.24,68.08c0-1.59,1.29-2.89,2.88-2.89h60.64c1.59,0,2.88,1.29,2.88,2.88,0,1.59-1.29,2.89-2.88,2.89h-60.64c-1.59,0-2.88-1.29-2.88-2.88Z"/>
      <path class="cls-1" d="M132.23,81.43c0-1.59,1.29-2.89,2.89-2.89h60.64c1.59,0,2.89,1.29,2.89,2.89,0,1.59-1.29,2.89-2.89,2.89h-60.64c-1.59,0-2.89-1.29-2.89-2.89Z"/>
      <path class="cls-7" d="M66.14,47.82c15.16,0,27.46,12.29,27.46,27.46s-12.29,27.46-27.46,27.46c-15.16,0-27.46-12.29-27.46-27.46s12.29-27.46,27.46-27.46Z"/>
      <polygon class="cls-6" points="63.52 86.86 55.31 76.3 60.08 72.58 63.97 77.58 77.12 63.71 81.51 67.87 63.52 86.86"/>
      <path class="cls-5" d="M321.45,27.4l-28.31,16.8-.37.22c-.23.13-.4.34-.49.58-.23.6.07,1.27.67,1.49l27.01,10.33c.35.13.75.09,1.06-.12.31-.21.5-.57.51-.94l.14-12.89c0-.19.08-.37.22-.5.19-.18.46-.24.7-.16l3.62,1.23c.49.18,1.03,0,1.32-.44h0c.3-.43.27-1.01-.07-1.41l-5.01-5.94c-.06-.07-.11-.16-.14-.25-.03-.09-.03-.19-.02-.29l.89-6.56c.04-.26-.02-.52-.15-.75-.33-.55-1.04-.73-1.59-.41h0ZM322.73,28.49l-.89,6.56c-.01.08-.02.17,0,.26l-28.26,9.43s-.05.02-.07.03c-.17.09-.26.28-.24.47.03.25.26.43.52.4l27.5-3.16c-.04.12-.06.25-.06.37l-.14,12.89c0,.08-.02.16-.05.24-.14.36-.54.54-.9.4l-27.01-10.33c-.14-.06-.27-.16-.35-.29-.2-.33-.09-.76.24-.95l.38-.22,28.3-16.79c.13-.08.29-.11.45-.09.38.05.65.4.6.78h0Z"/>
      <path class="cls-3" d="M321.45,27.4l-28.31,16.8-.37.22c-.23.13-.4.34-.49.58-.23.6.07,1.27.67,1.49l27.01,10.33c.35.13.75.09,1.06-.12.31-.21.5-.57.51-.94l.14-12.89c0-.19.08-.37.22-.5.19-.18.46-.24.7-.16l3.62,1.23c.49.18,1.03,0,1.32-.44h0c.3-.43.27-1.01-.07-1.41l-5.01-5.94c-.06-.07-.11-.16-.14-.25-.03-.09-.03-.19-.02-.29l.89-6.56c.04-.26-.02-.52-.15-.75-.33-.55-1.04-.73-1.59-.41h0ZM322.73,28.49l-.89,6.56c-.01.08-.02.17,0,.26,0,.08.02.15.04.23.02.08.05.15.09.22h0c.04.07.08.14.14.2l5.01,5.94c.21.23.23.58.04.84h0c-.17.27-.5.37-.79.27l-3.62-1.23c-.38-.13-.8-.05-1.11.2h0s-.04.04-.06.05c-.13.12-.24.28-.3.45-.04.12-.06.25-.06.37l-.14,12.89c0,.08-.02.16-.05.24-.14.36-.54.54-.9.4l-27.01-10.33c-.14-.06-.27-.16-.35-.29-.2-.33-.09-.76.24-.95l.38-.22,28.3-16.79c.13-.08.29-.11.45-.09.38.05.65.4.6.78h0Z"/>
      <path class="cls-3" d="M321.93,35.27l.15.44-.12.04h0s-28.24,9.43-28.24,9.43l27.91-3.2h0s.08,0,.08,0l.05.46-.49.06-27.5,3.16c-.19.02-.37-.07-.47-.24-.12-.23-.04-.51.19-.63.02-.01.05-.02.07-.03l28.26-9.43.11-.04Z"/>
      <path class="cls-5" d="M6.29.16c-.22-.13-.49-.19-.75-.15-.63.09-1.08.67-.99,1.3l.89,6.56c.01.1,0,.19-.02.29-.03.09-.07.18-.14.25L.28,14.36c-.34.39-.38.97-.07,1.4h0c.29.44.83.62,1.32.44l3.62-1.23c.24-.08.51-.02.7.16.14.13.22.31.22.5l.14,12.89c0,.38.19.73.51.94.31.21.71.26,1.06.12l27.01-10.33c.25-.09.45-.27.58-.49.33-.55.14-1.26-.41-1.59l-.37-.22L6.29.16h0ZM5.01,1.25c-.02-.16.01-.31.09-.45.2-.33.62-.44.95-.24l28.3,16.79.38.22c.13.08.24.2.29.35.14.36-.04.76-.4.9L7.62,29.15c-.08.03-.16.04-.24.05-.38,0-.7-.3-.7-.69l-.14-12.89c0-.13-.02-.25-.06-.37l27.5,3.16c.19.02.37-.07.47-.24.12-.23.04-.51-.19-.63-.02-.01-.05-.02-.07-.03L5.91,8.07c0-.09,0-.17,0-.26l-.89-6.56h0Z"/>
      <path class="cls-3" d="M6.29.16c-.22-.13-.49-.19-.75-.15-.63.09-1.08.67-.99,1.3l.89,6.56c.01.1,0,.19-.02.29-.03.09-.07.18-.14.25L.28,14.36c-.34.39-.38.97-.07,1.4h0c.29.44.83.62,1.32.44l3.62-1.23c.24-.08.51-.02.7.16.14.13.22.31.22.5l.14,12.89c0,.38.19.73.51.94.31.21.71.26,1.06.12l27.01-10.33c.25-.09.45-.27.58-.49.33-.55.14-1.26-.41-1.59l-.37-.22L6.29.16h0ZM5.01,1.25c-.02-.16.01-.31.09-.45.2-.33.62-.44.95-.24l28.3,16.79.38.22c.13.08.24.2.29.35.14.36-.04.76-.4.9L7.62,29.15c-.08.03-.16.04-.24.05-.38,0-.7-.3-.7-.69l-.14-12.89c0-.13-.02-.25-.06-.37-.06-.17-.16-.33-.3-.45-.02-.02-.04-.04-.06-.05h0c-.31-.26-.73-.33-1.11-.21l-3.62,1.23c-.29.11-.62,0-.79-.26h0c-.18-.26-.16-.61.04-.84l5.01-5.94c.05-.06.1-.13.14-.2h0c.04-.07.07-.14.09-.22.02-.07.04-.15.04-.23,0-.09,0-.17,0-.26l-.89-6.56h0Z"/>
      <path class="cls-3" d="M5.91,8.07l28.26,9.43s.05.02.07.03c.17.09.26.28.24.47-.03.25-.26.43-.52.4l-27.5-3.16-.49-.06.05-.46h.08s0,0,0,0l27.91,3.2L5.79,8.51h0s-.12-.04-.12-.04l.15-.44.11.04Z"/>
      <path class="cls-5" d="M219.22,219.9l-.38-.19c-.23-.12-.5-.16-.76-.1-.63.13-1.03.74-.9,1.36l5.7,28.35c.08.37.33.68.67.83.35.15.75.12,1.07-.08l10.97-6.77c.16-.1.35-.13.53-.08.25.06.44.26.51.51l.9,3.72c.11.51.56.87,1.08.89h0c.52.03.99-.31,1.14-.81l2.34-7.41c.03-.09.08-.18.14-.25.07-.07.15-.13.23-.17l6.03-2.75c.24-.11.43-.29.55-.53.29-.57.07-1.27-.5-1.56l-29.33-14.95ZM248.31,236.52l-6.03,2.75c-.08.03-.15.08-.22.13l-23.08-18.84s-.04-.03-.07-.04c-.17-.09-.37-.08-.52.05-.2.16-.23.45-.06.65l17.37,21.56c-.12.03-.24.08-.35.15l-10.97,6.77c-.07.04-.15.07-.23.09-.38.08-.74-.17-.82-.54l-5.7-28.35c-.03-.15,0-.31.06-.45.17-.34.59-.48.94-.31l.39.2,29.32,14.95c.14.07.25.19.32.33.16.35,0,.76-.34.92h0Z"/>
      <path class="cls-3" d="M219.22,219.9l-.38-.19c-.23-.12-.5-.16-.76-.1-.63.13-1.03.74-.9,1.36l5.7,28.35c.08.37.33.68.67.83.35.15.75.12,1.07-.08l10.97-6.77c.16-.1.35-.13.53-.08.25.06.44.26.51.51l.9,3.72c.11.51.56.87,1.08.89h0c.52.03.99-.31,1.14-.81l2.34-7.41c.03-.09.08-.18.14-.25.07-.07.15-.13.23-.17l6.03-2.75c.24-.11.43-.29.55-.53.29-.57.07-1.27-.5-1.56l-29.33-14.95ZM248.31,236.52l-6.03,2.75c-.08.03-.15.08-.22.13-.06.05-.12.1-.17.16-.05.06-.1.12-.14.19h0c-.04.07-.07.15-.1.23l-2.34,7.41c-.09.3-.37.5-.68.49h0c-.31,0-.58-.22-.65-.53l-.9-3.72c-.09-.39-.38-.7-.76-.83h0s-.05-.02-.08-.02c-.18-.05-.36-.05-.54,0-.12.03-.24.08-.35.15l-10.97,6.77c-.07.04-.15.07-.23.09-.38.08-.74-.17-.82-.54l-5.7-28.35c-.03-.15,0-.31.06-.45.17-.34.59-.48.94-.31l.39.2,29.32,14.95c.14.07.25.19.32.33.16.35,0,.76-.34.92h0Z"/>
      <path class="cls-3" d="M242.15,239.47l-.29.36-.1-.08h0s-23.06-18.83-23.06-18.83l17.62,21.88h0s.05.06.05.06l-.36.29-.31-.38-17.37-21.56c-.12-.15-.14-.35-.05-.52.13-.22.41-.3.63-.18.02.01.05.03.07.04l23.08,18.84.09.07Z"/>
    </g>
  </g>
</svg>